<svg viewBox="0 0 1598 854" xmlns="http://www.w3.org/2000/svg">
 <g fill="#A9D86E" stroke="#F7FFE9" stroke-linejoin="round" stroke-width="1.5">
  <path d="m563 685-3-0.63-3.3 0.39-5.6 2-2 1.2-0.55 1.6 0.23 1.5 1.9 1.3-2.7 0.94-3.8 0.31-2.2 1.3-2.4 1.3-2.5 1.7-0.63 1.5 1.4 1.6 2.1 1.3 3.3 0.94 3.1 1.3 1.6 1.6 0.86 1.5 1.2 1.6 1.9 1.3 1.2 1.5 0.55 3.7 1.2 1.5 0.31 1.6 1.3 1.6-0.55 2.1-2.2 1.6-2.4 1.3-5.3 0.55-1.8 1.4-2.4 1.3-6 1.5-5.3 0.63-5 0.86-5.4 0.86-3.2 1.6-6.4 0.16-7.1-0.16-6.3 0.31h-6.7l1.3 1.6 6.1 0.71 4.5 1.1 2.5 1.4-4.5 1.3-6.9-0.39-5.7 1-0.24 1.6-0.16 1.6 4.7 1.3 0.86 1.5 5.1 1.5 8.5 0.63 7.2 1.1 13 2.5 9.9 0.63 9.8 1.1 6.8 1.2 7.4 1.3 3.9 1.9 2 1.5 4.9-1.4 14-2.4 15-2.1 9.9-0.078 9.8 0.55 8.1 0.94 2.6-1.7 5.6-1.2 10-0.078 15-1.7 17-1.3 6.2-1-2.8-1.4-1.7-1.4v-1.5l-7.8 0.16-8.2 0.63h-7.8l-1.1-1.5 0.55-3 1.8-0.86 5.7-0.94 6.7-0.94 9.7-2.4 3.6-1.6 5.5-0.71 8.1-0.86 6.2-0.16 5.9-0.55 20-3.9 3.5-1.3 3.8-1.2 1.2-1.6-4.2-0.94 1.4-1.6 2.7-1.3 8.5-1.7 4.1-1.3 3.1-1.6 2-1.9 2.9-1.1 4.8 0.24 2 1.3 4.8 0.16 0.16-1.5 2-1.6 4.3 0.39 1 1.5 4.8 0.24 5.2-0.71 5-0.47 4.5 0.24 1.7 1.6 4.4-1.3 4.1-0.71 9-1.1 4.1-0.94 4.5-0.63 3.4-0.86 2.4-1.4 3 1 4.2-0.55 5.2 3.3 4.5-0.78 1.8-1.6 4.1-1.1 5.2 0.24 1.6 1.5 3.3-1.5 4.3-0.47 4.7-0.16 4.2 0.078 4.5 0.47 4.3 0.24 1.9 1.3 2.6 1.2 4.4-0.71 4.7-0.16h4.5l4.5-0.078 4-0.55 4.2-0.47 3.5-1.1 3.8-0.71 4.1-0.39 3.1-1.1 2.2-2.2 2.3-1.3 4.2 0.63 1.6 1.4 3.4 0.94 4.2-0.31 2.8 1.4 3 1 4.1-0.94 1.4-1.7 3.6-0.71 4.2-1.3 8.6-1.3 6.4-1.8 3.1-0.86 3.8 0.47 6.2-2.5 3.8 0.078 3.3-0.94 0.78-1.4 3.4-1.1 3.3-0.78 4-0.63 3.7-0.31 3.5 0.24 3.8 0.39 3.2 1.1 0.39 1.7 3.5 1.3 2.4 1.1 4.8 0.47 2.7 1.1 3.3 1.1 3.8 0.24 3.2-0.78 3.4-1.6 3.8 0.86 12 1.3h4l3.3 4.2-0.16 1-0.47 1.8-3.8 1-3.1 1.5 0.55 1.6 4.5-0.079-0.55 1.6-2 1.5-1.9 1.6 3.1 1.3 4.6 0.39 4.6-0.71 2.2-1.6 1.3-1.5 2.2-1.3 2.5-1.2 1-1.4 2.1-2 2.5-0.39 4.5-0.16 8.1-1.1 2-1.6 1.2-1.5 2.7-1.5 3.9-1 3.4-0.78 2.2-1.3 2.3-0.71 2.9-0.63 4 0.39 7.5-0.86 4.4 0.24 2.9-1.1 2-2.7 1.5 1.1 1.9 1.9 3.4 0.78 3.8 0.31 3.8-0.47 4.1 0.31 3.8 0.078 2.5-0.39 3.4 0.24 3.1 0.86 3.6-0.55h4.3l3.7-0.55 4.2 0.55 2.7-1.3 2-1.3 2.7-1.1 5-3 2.6 0.55 3.1 1.1 2.7 1.4 5.1 2.4 3.9 0.079h3.7l8.6-1 3.3-1.1 2.7-1.2 4.5-0.16 3-0.86 3.1 0.78 2 1.3 2.8 1.3 4.4-0.16 2.7 1 4.8 1 4.2 0.33-5.3 2.3-5.7 2.5-5.8 2.4-5.8 2.4-5.9 2.4-6.9 2.7-7 2.7-7 2.6-7.1 2.6-7.2 2.6-7.2 2.5-7.3 2.5-8.4 2.8-8.5 2.7-8.5 2.6-8.6 2.6-8.7 2.5-8.8 2.5-8.8 2.4-10 2.6-10 2.6-10 2.5-10 2.4-10 2.3-10 2.2-10 2.1-11 2.1-12 2.2-12 2.1-12 2-12 1.9-12 1.8-12 1.7-12 1.6-12 1.5-12 1.4-14 1.4-14 1.2-14 1.1-14 0.98-14 0.85-14 0.71-14 0.58-14 0.45-14 0.32-14 0.18-13 0.052-14-0.069-14-0.2-14-0.33-14-0.47-14-0.6-14-0.73-14-0.86-14-1-14-1.1-14-1.3-12-1.3-12-1.4-12-1.5-12-1.6-12-1.7-12-1.8-12-1.9-12-2-12-2.1-12-2.2-11-2.1-10-2.2-10-2.2-10-2.3-10-2.4-10-2.5-10-2.6-8.9-2.3-8.8-2.4-8.8-2.5-8.7-2.5-8.6-2.6-8.6-2.6-8.5-2.7-7.4-2.4-3.4-1.1-0.88-0.45-2-1.4-3.2-0.19-3.8-1.3-0.46-0.3-0.86-1.5-1.4-3 3.1 0.55 5.2 0.24 5.2-0.24 4.7 0.63 4.1 1.2 1.7 1.4 5.4 0.24 11-1.3 4.9-0.47 4.1 0.94 5.3-0.31 3.4-3.1 3.2 1.8 4.6 0.71 5-0.39 3.3 1.6 5.2 0.16 4.9 0.47 4.8 0.86 3.1-1.5 1.6-1.4 4 1.6 5.5-0.39 4.1 0.86 2.7 1.3 5.3-0.39 8.2-1.9 4.9-0.55 11-1 3.9-0.86 2.4-1.3 0.94-1.7-0.47-1.6-1.3-1.6-1.4-1.6-1.3-1.6-1-1.4-0.24-1.6 0.39-1.6 1.9-1.5 1.6-1.6 0.63-1.6-0.78-1.7-0.47-1.6 2-1.8 4.8-2.7 2.7-1.3 3.2-1.2 1.6-1.7 2.2-1.1 2.5-1 3.8-0.24 2.5-1.3 2.8-0.78 3.3-0.47 2.9-1 2.3-1.3 3.1-0.47 2.4 1-1.5 1.3-4.1 1.2-1.7 0.86"/>
 </g>
</svg>
