<svg viewBox="0 0 1598 854" xmlns="http://www.w3.org/2000/svg">
 <g fill="#A9D86E" stroke="#F7FFE9" stroke-linejoin="round" stroke-width="1.5">
  <path d="m533 645 5.6 1-1.8 2-3.8 0.2-2-1.4-1.3 1.6-3.4 1.2-4.3-0.45-2.9-1.2-4.2-0.58-5-2.2-4.1-2.2-5.5-4.5 3.3 0.84 5.6 2.7 5.3 1.4 2.1-1.8 1.3-2.7 3.7-1.7 2.8 0.47 4e-4 4.8e-4 1.5 1.9 2 3 5.2 2.4"/>
  <path d="m568 633-1.2 1.4-5.4 1.2-1.8-1.4-3.4 1.8-2-1.8 4.8-2.4 3.4 1 2.4-1.6 3.2 1.8"/>
  <path d="m1074 626-0.1-2.1 0.59-1.6 0.27-0.82 2.6 1.3 3.8 0.5 0.14 0.76-1.1 1.8-6.1 0.26"/>
  <path d="m1385 592 2.2-0.55 3.1-0.77 2.4 0.27 0.28 4.7-1.4 1.4-0.41 3.2-1.4-1.1-2.8 2.8-0.83-0.21-2.5-0.12-2.5-3.4-0.55-2.6-2.3-3.5 0.1-1.8 2.6 0.35 3.9 1.4"/>
  <path d="m1466 517-2.2-1.1-2.9-1.8-2.6-2.1-2.6-2.8-0.55-1.4 1.7 0.057 2.2 1.4 1.8 1.4 1.3 1.1 3.3 2.5 2.1 1.8-1.5 0.96"/>
  <path d="m1469 494-1.3-1.8 0.15-1.1 2.5 2.3-1.3 0.53"/>
  <path d="m1468 490-1.1-0.5-0.83 0.22-0.57-1.1-0.083-3.1 1.9 1.2 0.65 3.2"/>
  <path d="m1e3 486 1 1.9-0.4 1.9-0.71 1.2-1.4-2.3-0.75 1.2 0.76 3-0.36 1.7-1.1 0.92-0.25 3.4-1.6 4.7-2 5.5-2.5 7.6-1.5 5.6-1.8 4.6-3.3 0.95-3.5 1.7-2.3-1-3.2-1.4-1.1-2.1-0.26-3.5-1.4-3.2-0.37-2.9 0.72-2.9 1.8-0.69 0.011-1.3 1.9-3 0.36-2.5-0.93-1.9-0.76-2.5-0.32-3.7 1.4-2.2 0.54-2.5 2-0.15 2.2-0.82 1.5-0.72 1.8-0.054 2.3-2.3 3.3-2.5 1.2-2-0.54-1.7 1.7 0.48 2.2-2.8 0.074-2.4 1.3-1.8 1.4 1.7 1.1 1.7 0.99 2.6 0.64 4.8"/>
  <path d="m1375 485 2.6-1.5 1.3 1.7 1.9 1.6-0.41 1.8 0.85 3.4 0.61 2 1 0.49 1.1 3.4-0.39 2.1 1.3 2.7 4.3 2.1 5.5 3.6-0.52 0.97 2.3 2.5 1.6 4.3 1.6-0.88 1.6 1.7 0.98-0.61 0.69 4.2 4.7 4 3.1 3.2 1.1 3.2 0.1 2.3-0.28 2.5 1.9 3.4-0.23 3.5-0.69 1.9-1.1 3.6 0.081 2.3-0.79 2.9-1.8 3.6-3 2-1.5 3.1-1.3 2-1.2 3.5-1.5 2-1 3-0.52 2.8 0.2 1.3-2.3 1.4-4.5 0.15-3.7 1.6-1.8 1.5-2.4 1.7-3.3-1.8-2.5-0.71 0.62-2.1-2.2 0.76-3.5 2.9-5.7-1.7-2.3-0.29-3.9-1.2-2.6-2.5-0.74-3-0.93-2-2-1.6-3.8-0.48 1.3-1.9-0.97-3-2 2.8-3.6 0.73 2.1-2.2 0.61-2.3 1.5-2-0.32-3-3.3 3.4-2.5 1.4-1.5 3.2-3.1-1.6 0.12-2.1-2.5-2.9-2.1-1.5 0.75-0.92-5.1-2.4-2.8-0.11-3.8-1.9-7.2 0.38-9.7 2.8-3.8-0.27-4.2 2.1-3.5 0.92-0.77 2.1-1.5 1.6-3.4 0.097-2.5 0.36-3.5-0.73-2.9 0.44-2.7 0.18-2.4 2.1-1.2-0.18-2 1.1-1.9 1.3-2.9-0.16-2.7-0.0014-4.2-2.6-2.2-0.76 0.087-2.3 2-0.54 0.68-0.91-0.14-1.4 0.49-2.8-0.45-2.4-2.1-4-0.66-2.3 0.17-2.3-1.6-2.6-0.1-1.2-1.8-1.6-0.5-3.1-2.3-3.2-0.55-1.7 1.8 1.7-1.3-3.7 2 1.2 1.2 1.5-0.067-2-2-3.1-0.38-1.3-0.93-1.2 0.43-2.3 0.82-0.98 0.55-2-0.43-2.3 1.7-2.9 0.3 3 1.7-2.8 3.2-1.3 1.9-1.7 3.1-1.5 1.8-0.31 1.1 0.49 3.2-1.5 2.4-0.44 0.61-0.88 1.1-0.37 2.2 0.094 4.2-1.2 2.2-1.8 1-2.1 2.3-2 0.18-1.6 0.1-2.2 2.8-3.4 1.7 3.5 1.7-0.8-1.4-1.9 1.3-1.9 1.8 0.87 0.49-3 2.2-2 0.96-1.6 2-0.68 0.063-1.1 1.8 0.47 0.071-1 1.8-0.57 1.9-0.54 3 1.8 2.2 2.4 2.5 0.027 2.5 0.38-0.85-2.2 1.9-3.2 1.8-1-0.62-1 1.7-2.3 2.4-1.4 2 0.48 3.4-0.75-0.072-2-2.9-1.3 2.1-0.58 2.6 0.99 2.1 1.6 3.4 1 1.1-0.4 2.5 1.2 2.3-1.1 1.5 0.35 0.94-0.77 1.8 2-1.1 2.1-1.5 1.6-1.4 0.13 0.46 1.6-1.2 2-1.4 2 0.29 1.1 3.2 2.2 3.1 1.3 2.1 1.4 2.9 2.4 1.1-0.0039 2.1 1 0.61 1.2 3.8 1.4 2.6-1.4 0.78-2.1 0.81-1.8 0.5-2.2 1.2-3.2-0.56-1.9 0.29-1.2-0.46-2.3 0.52-3 0.77-0.81-0.62-1.3 0.97-2.1 0.76-2.2 0.1-1.1 1.5-1.5 1.1 2 0.28 2.5 1 0.48 0.17 1.7 1.5 2 0.3 2.3-0.14 1.5 1.4 3.1"/>
  <path d="m1449 471-2.8-0.025-1.5-2.5 2.4 0.97 0.81 0.14 1.1 1.4"/>
  <path d="m1280 468-5.3-2.8 3.7-0.79 2.1 1.2 1.4 1.2-0.24 1.1-1.7 0.076"/>
  <path d="m1441 467-2.5-0.4-0.84-0.62 0.25-1.6 2.6 0.63 1.3 0.84 0.65 1.1-1.6 0.089"/>
  <path d="m1445 466-3-3.5-0.83-2.4h1.4l1.4 3.2 1.6 1.9-0.6 0.74"/>
  <path d="m1294 469-0.48-0.48 0.36-1.4 1.7-2.4 4-1.6 0.47-0.94 3.4-0.9 2.8-0.14 1.3-0.5 1.5 0.5-1.5 1.1-4.2 1.8-3.3 1.1-2.6 3-3.4 0.88"/>
  <path d="m1272 461 2.5-0.33 0.99 1.7-7.4 1.3-2.2-0.032 1.4-2.3 2.2-0.031 1.1-1.4 1.4 1.1"/>
  <path d="m1290 462-6 1.1-5.3-0.49-0.014-1.5 3.2-0.83 2.5 1.2 2.7-0.3 3.6-1.5-0.59 2.2"/>
  <path d="m1439 461-3.1-1.7-2.2-1.4-1.5-1.3 0.6-0.41 1.8 0.96 3.3 1.8 0.94 1.3 0.17 0.8"/>
  <path d="m1429 457-1.7-0.91-1.6-1.6 0.21-0.67 2.4 1.7 1.6 1.3-0.8 0.23"/>
  <path d="m1241 455 0.88-1.6 7.4 1.9 1.5 2.6 6 0.73 4.9 2.4-4.6 1.5-4.4-1.6-3.6 0.11-4.2-0.3-3.7-0.72-4.6-1.5-2.9-0.4-1.7 0.5-7.3-1.6-0.69-1.7-3.7-0.29 2.7-3.8 4.9 0.24 3.2 1.6 1.7 0.3 0.55 1.4 7.7 0.4"/>
  <path d="m1336 455-0.39-3 0.71-1.4 0.84-1.4 0.91 1.2-0.0095 1.9-2.1 2.7"/>
  <path d="m1422 455-1.7-1.5-1.8-2.5-0.86-3 0.55-0.39 0.43 1.2 1.2 0.91 1.9 2.5 1.9 1.4-0.56 1.1-1.1 0.4"/>
  <path d="m1405 449-0.63 1.1-4.2 1.9-2.1-5e-3 -3.3-1.2-2.3-1.1 0.33-1.2 3.6 0.58 2.2-0.31 0.6-1.9 0.57-0.099 0.39 2.1 2.3-0.31 1.1-1.4 2.2-1.4-0.44-2.4 2.4-0.076 0.81 0.66-0.08 2.2-1.3 2.4-2.1 0.33"/>
  <path d="m1307 442-2.8-0.73-0.78-1.7 4-0.19 0.99 1.3-1.5 1.3"/>
  <path d="m1323 443-3.4-1.6-3.3-0.33-2.3 0.26-2.8-0.14 0.95-2.2 4.9-0.17 4.4 1.2 1.5 3.1"/>
  <path d="m1411 446-0.75-2.4-0.93-1.5-1.8-1.3-2.3-1.7-2.9-1.2 1.1-0.97 2.2 1.1 1.4 0.88 1.7 0.96 1.6 1.7 1.5 1.3 0.48 2.1-1.3 1.1"/>
  <path d="m1337 438 4.1 2.4 3.3-4.2 4.6-2.4 3.6-0.0033 3.4 1.4 3 1.4 4.3 0.76 6.9 2.8 7.4 2.3 2.8 2 2.2 2 0.61 2.4 6.7 2.5 0.97 2.1-3.7 0.43 0.88 2.7 3.6 2.6 2.6 4.2 2.3-0.13-0.16 1.8 3.1 0.68-1.2 0.75 4.3 1.7-0.44 1.2-2.6 0.28-0.98-1-3.4-0.45-4-0.6-3.1-2.6-2.3-2.2-2.1-3.5-5.2-1.7-3.4 1.1-2.4 1.3 0.51 3-3.1 1.4-2.2-0.67-4.1-0.17-3.6-3.3-4.1-0.8-0.99 1.1-5.1 0.12 1.7-3.3 2.5-1.1-1-4.3-1.9-3.4-7.8-3.4-3.3-0.33-6-3.7-1.2 1.9-1.5 0.35-0.91-1.5-0.013-1.7-3.1-2 4.3-1.4 2.9 0.078-0.34-1.1-5.9-0.0081-1.6-2.4-3.6-0.74-1.7-2 5.4-0.97 2.1-1.3 6.4 1.6 0.63 1.5 1.1 6.5"/>
 </g>
</svg>
