<svg viewBox="0 0 1598 854" xmlns="http://www.w3.org/2000/svg">
 <g fill="#A9D86E" stroke="#F7FFE9" stroke-linejoin="round" stroke-width="1.5">
  <path d="m889 117-7.1-0.93 2.8-1-2.4-1.3 8.3-0.8 1.6 1.5 5.8 0.9-8.9 1.6"/>
  <path d="m885 111-10 1.6-2.2 2.9-3.5 0.75-1.9 3.3-4.8 0.16-8.6-2.4 3.6-1.4-6-1.2-7.8-3.4-3.1-3.1 11-1.4 2.2 1.4 5.7-0.056 1.5-1.4 5.9-0.14 5 1.4 13 3"/>
  <path d="m909 107-5.9 2.2-12 0.47-12-0.67-0.71-1.1-5.7-0.07-4.4-1.8 12-1.1 5.8 0.96 4-1.2 10 1 7.8 1.4"/>
  <path d="m998 106-3.6 0.3-0.56 0.66-4.7 0.66-4.3-0.95 2.3-1.2-8.9-0.12 7.8-0.73 6.1-0.048 0.82 1.1 2.3-0.96 3.8-0.66 5.9 0.88-1.5 0.61-5.4 0.53"/>
  <path d="m536 95 8.6 0.51 7.3 1.1-0.18 1.1-9.8 1.7-9.7 0.81-3.6 0.9 8.7-0.021-9.4 2.4-6.5 1.1-6.8 3.3-8.3 0.66-2.5 0.82-12 0.43 5.5 0.5-2.8 0.71 3.3 2-3.8 1.4-6.2 1.1-1.9 1.6-5.6 1.2 0.56 0.91 6.8-0.15 0.087 0.98-11 2.4-10-1.1-12 0.62-6-0.48-7.6-0.21-0.5-1.9 7.4-0.9-2-2.9 2.4-0.28 11 1.7-5.5-2.6-6.5-0.77 3-1.4 0.55-0.15 6.8-0.91 0.98-1.2 9.9-2.6 10-2.6 10-2.5 10-2.4 10-2.3 10-2.2 3.3-0.69 13 0.37"/>
  <path d="m716 96-7.4 1.5-37 0.57 2 0.71 14-0.44 12 1.4 7.8-1.2 3.3 1.4-4.4 2.3 10-1.5 19-1.6 12 0.77 2.2 1.7-16 2.8-2.3 0.92-13 0.69 9.3 0.19-4.7 2.9-3.2 2.6 0.13 4.5 4.8 2.6-6.2 0.17-6.6 1.3 7.4 2.1 0.94 3.4-4.3 0.37 5.2 3.4-8.9 0.29 4.6 1.6-1.3 1.4-5.6 0.62-5.6 0.012 5 2.7 0.054 1.8-7.9-1.7-2.1 1.1 5.4 1 5.2 2.4 1.5 3.2-7.1 0.77-8-3.8 1.4 2.7-4.6 2.1 11 0.17 5.5 0.22-11 3.5-11 3.2-12 1.4-4.4 0.017-4.1 1.5-5.6 4.2-8.6 2.8-2.8 0.16-5.3 0.98-5.7 0.93-3.4 2.5-0.055 2.8-2 2.6-6.5 3.2 1.6 3.1-1.8 3.3-2 3.9-5.6 0.24-5.9-3.3-8-0.021-3.9-2.2-2.7-3.9-6.9-5-2-2.6-0.55-3.6-5.5-3.7 1.4-2.9-2.7-1.4 4-4.7 6-1.5 1.6-1.7 0.84-3.1-4.6 1.4-2.2 0.6-3.6 0.57-4.9-1.3-0.27-2.7 1.6-2.1 3.7-0.058 8.2 1.1-6.9-2.5-3.6-1.4-4 0.56-3.3-0.99 4.5-3.7-2.4-1.5-3.2-2.8-4.8-4.2-5.1-1.6 0.047-1.7-11-2.3-8.5-0.29-20 0.46-4.6-1.3-7-2.5 11-1.3 8.1-0.21-17-1-9-1.6 0.55-1.6 30-3.8 1.5-1.5-11-1.4 3.5-1.6 14-2.8 5.8-0.43-1.7-1.8 9.5-1.1 12-0.63 12-0.036 4.4 1.2 11-2.2 9.5 1.5 5.6 0.32 8.3 1.3-9.5-2.2 0.55-1.7 13-2.4 14 0.18 5.1-1.5 14-0.38 32 0.5 25 3.2"/>
 </g>
</svg>
